<svg width="40" height="40" viewBox="0 0 40 40" fill="none" xmlns="http://www.w3.org/2000/svg">
<path d="M13.0097 34.0699C10.7303 32.4181 10.0649 28.9473 11.0145 26.4329C12.6612 28.0182 14.9427 28.5203 17.306 28.8038C20.9543 29.2413 24.5373 29.0777 27.9264 27.7557C28.314 27.6043 28.6723 27.4031 29.0959 27.1993C29.414 27.9306 29.4967 28.6691 29.3857 29.4206C29.1157 31.251 27.9667 32.6649 26.1392 33.7366C25.4085 34.1653 24.6352 34.5485 23.8805 34.9527C21.562 36.1952 20.9347 37.6518 21.8059 39.7709C21.8266 39.8225 21.8452 39.8741 21.8919 40.0001C20.7081 39.5801 19.8435 38.9686 19.1847 38.1645C18.4887 37.3158 18.1576 36.377 18.1402 35.3613C18.1314 34.867 18.1314 34.3682 18.0475 33.881C17.8428 32.6929 17.1394 32.1609 15.814 32.1302C14.4537 32.0987 13.3778 32.7654 13.0924 33.8153C13.0707 33.8958 13.0391 33.9754 13.0075 34.069L13.0097 34.0699Z" fill="#FF5D01"/>
<path d="M0 26.014C0 26.014 6.74962 23.4072 13.5181 23.4072L18.6213 10.8864C18.8123 10.2809 19.3703 9.8694 19.9999 9.8694C20.6297 9.8694 21.1877 10.2809 21.3787 10.8864L26.4819 23.4072C34.4982 23.4072 40 26.014 40 26.014C40 26.014 28.5353 1.25346 28.5128 1.20378C28.1837 0.471721 27.6283 0.000244141 26.8794 0.000244141H13.1218C12.3729 0.000244141 11.8398 0.471721 11.4884 1.20378C11.4636 1.25252 0 26.014 0 26.014Z" fill="#000014"/>
</svg>
