<svg width="39" height="40" viewBox="0 0 39 40" fill="none" xmlns="http://www.w3.org/2000/svg">
<path fill-rule="evenodd" clip-rule="evenodd" d="M8.09938 0C5.87438 0 4.22798 2.5077 4.30171 5.22723C4.37246 7.83997 4.28054 11.2238 3.61899 13.9834C2.95509 16.7507 1.83307 18.5043 0 18.7294V21.2706C1.83307 21.4962 2.95509 23.2489 3.61892 26.0166C4.28054 28.7762 4.37239 32.16 4.30163 34.7728C4.22791 37.4919 5.8743 40 8.09968 40H30.8986C33.1236 40 34.7697 37.4923 34.6959 34.7728C34.6252 32.16 34.7171 28.7762 35.3786 26.0166C36.0425 23.2489 37.1618 21.4955 38.995 21.2706V18.7294C37.1619 18.5038 36.0426 16.7511 35.3786 13.9834C34.717 11.2242 34.6252 7.83997 34.6959 5.22723C34.7697 2.50809 33.1236 0 30.8986 0H8.09907H8.09938ZM26.4373 24.6226C26.4373 28.3673 24.2681 30.6383 20.6683 30.6383H14.5405C14.3652 30.6383 14.1971 30.5487 14.0731 30.3891C13.9492 30.2295 13.8795 30.013 13.8795 29.7873V10.2128C13.8795 9.9871 13.9492 9.77063 14.0731 9.61102C14.1971 9.45141 14.3652 9.36175 14.5405 9.36175H20.6334C23.6351 9.36175 25.605 11.4554 25.605 14.6698C25.605 16.9259 24.2798 18.9457 22.5915 19.2996V19.4173C24.8898 19.7419 26.4373 21.7916 26.4373 24.6226ZM20.0002 12.0596H16.5061V18.4147H19.449C21.7239 18.4147 22.9783 17.2351 22.9783 15.1266C22.9781 13.1507 21.8996 12.0596 20.0002 12.0596ZM16.5061 20.9362V27.9396H20.1287C22.4974 27.9396 23.752 26.7158 23.752 24.4158C23.752 22.1158 22.4622 20.9358 19.9764 20.9358H16.5061V20.9362Z" fill="#7952B3"/>
</svg>
