<svg width="41" height="41" viewBox="0 0 41 41" fill="none" xmlns="http://www.w3.org/2000/svg">
<path d="M40.1025 0.199951L36.4584 36.1958L20.0781 40.2L3.74278 36.2014L0.102539 0.199951H40.1025Z" fill="#264DE4"/>
<path d="M33.3387 33.9036L36.4528 3.14355H20.1025V37.1393L33.3387 33.9036Z" fill="#2965F1"/>
<path d="M8.44775 16.4961L8.89657 20.9115H20.1026V16.4961H8.44775Z" fill="#EBEBEB"/>
<path d="M20.1025 7.55908H20.0852H7.5459L8.00111 11.9746H20.1025V7.55908Z" fill="#EBEBEB"/>
<path d="M20.1024 32.5572V27.9633L20.0804 27.9685L14.5035 26.6407L14.1469 23.1191H11.437H9.12012L9.82168 30.052L20.0793 32.5629L20.1024 32.5572Z" fill="#EBEBEB"/>
<path d="M26.2517 20.9114L25.6705 26.6379L20.0854 27.9671V32.5608L30.3513 30.0521L30.4266 29.3061L31.6033 17.6817L31.7255 16.496L32.6295 7.55908H20.0854V11.9746H27.1416L26.686 16.496H20.0854V20.9114H26.2517Z" fill="white"/>
</svg>
