<svg width="21" height="21" viewBox="0 0 21 21" fill="none" xmlns="http://www.w3.org/2000/svg">
<path fill-rule="evenodd" clip-rule="evenodd" d="M7.28035 0.219712C7.4983 0.43768 7.5607 0.766804 7.43765 1.04942C6.95312 2.16226 6.75 3.50443 6.75 4.87502C6.75 10.0525 10.9475 14.25 16.125 14.25C17.4956 14.25 18.8378 14.0469 19.9506 13.5624C20.2332 13.4393 20.5623 13.5017 20.7803 13.7197C20.9983 13.9376 21.0607 14.2667 20.9377 14.5494C19.2558 18.413 15.3223 21 10.875 21C4.86907 21 0 16.131 0 10.125C0 5.67771 2.58704 1.74418 6.45066 0.0623496C6.73328 -0.0606771 7.0624 0.00174478 7.28035 0.219712ZM5.4893 2.31353C3.05977 4.01825 1.5 6.90413 1.5 10.125C1.5 15.3025 5.69749 19.5 10.875 19.5C14.0959 19.5 16.9818 17.9403 18.6865 15.5107C17.8445 15.6795 16.9746 15.75 16.125 15.75C10.1191 15.75 5.25 10.881 5.25 4.87502C5.25 4.02539 5.32048 3.1555 5.4893 2.31353Z" fill="#1E293B"/>
</svg>
