<svg width="21" height="20" viewBox="0 0 21 20" fill="none" xmlns="http://www.w3.org/2000/svg">
<path d="M11.5 1C11.5 0.447715 11.0523 0 10.5 0C9.94771 0 9.5 0.447715 9.5 1V10.5858L6.20711 7.29289C5.81658 6.90237 5.18342 6.90237 4.79289 7.29289C4.40237 7.68342 4.40237 8.31658 4.79289 8.70711L9.79289 13.7071C10.1834 14.0976 10.8166 14.0976 11.2071 13.7071L16.2071 8.70711C16.5976 8.31658 16.5976 7.68342 16.2071 7.29289C15.8166 6.90237 15.1834 6.90237 14.7929 7.29289L11.5 10.5858V1Z" fill="white"/>
<path d="M1.5 12C2.05228 12 2.5 12.4477 2.5 13V17C2.5 17.2652 2.60536 17.5196 2.79289 17.7071C2.98043 17.8946 3.23478 18 3.5 18H17.5C17.7652 18 18.0196 17.8946 18.2071 17.7071C18.3946 17.5196 18.5 17.2652 18.5 17V13C18.5 12.4477 18.9477 12 19.5 12C20.0523 12 20.5 12.4477 20.5 13V17C20.5 17.7957 20.1839 18.5587 19.6213 19.1213C19.0587 19.6839 18.2957 20 17.5 20H3.5C2.70435 20 1.94129 19.6839 1.37868 19.1213C0.81607 18.5587 0.5 17.7957 0.5 17V13C0.5 12.4477 0.947715 12 1.5 12Z" fill="white"/>
</svg>
