<svg width="41" height="41" viewBox="0 0 41 41" fill="none" xmlns="http://www.w3.org/2000/svg">
<path d="M39.6456 18.4181L22.1812 0.954301C21.176 -0.0514987 19.5448 -0.0514987 18.5384 0.954301L14.9118 4.58093L19.5123 9.18148C20.5813 8.82023 21.8073 9.06258 22.6595 9.91478C23.5157 10.7725 23.7564 12.0089 23.3864 13.0814L27.82 17.5152C28.8926 17.1457 30.1303 17.3848 30.987 18.2429C32.1843 19.4398 32.1843 21.3797 30.987 22.5774C29.7893 23.7752 27.8495 23.7752 26.6512 22.5774C25.7506 21.6758 25.5281 20.3531 25.984 19.2435L21.8493 15.1088L21.8488 25.9898C22.1486 26.138 22.4223 26.3337 22.6595 26.5695C23.8568 27.7664 23.8568 29.7064 22.6595 30.905C21.4618 32.1022 19.521 32.1022 18.3251 30.905C17.1277 29.7064 17.1277 27.7665 18.3251 26.5696C18.612 26.2825 18.953 26.0552 19.3284 25.9007V14.9183C18.9525 14.7649 18.6113 14.5374 18.3251 14.2494C17.4179 13.3434 17.1998 12.0123 17.6646 10.8984L13.1296 6.36284L1.15459 18.3373C0.148339 19.344 0.148339 20.9755 1.15459 21.9814L18.6193 39.4455C19.6248 40.4514 21.2557 40.4514 22.2624 39.4455L39.6454 22.0625C40.6514 21.0562 40.6515 19.4239 39.6456 18.4181Z" fill="#DE4C36"/>
</svg>
