<svg width="40" height="40" viewBox="0 0 40 40" fill="none" xmlns="http://www.w3.org/2000/svg">
<path d="M20.0001 0C8.95576 0 0 9.18083 0 20.5063C0 29.5667 5.73062 37.2532 13.6773 39.9648C14.6768 40.1546 15.0439 39.5199 15.0439 38.9783C15.0439 38.4893 15.0252 36.8738 15.0167 35.1604C9.45253 36.4008 8.27845 32.7409 8.27845 32.7409C7.36868 30.3706 6.05783 29.7405 6.05783 29.7405C4.2433 28.4677 6.1946 28.4938 6.1946 28.4938C8.203 28.6385 9.26054 30.607 9.26054 30.607C11.0443 33.7421 13.9393 32.8356 15.0806 32.3118C15.26 30.9863 15.7784 30.0818 16.3503 29.5697C11.9081 29.051 7.23818 27.2927 7.23818 19.4353C7.23818 17.1966 8.01948 15.3672 9.29897 13.9312C9.09129 13.4146 8.40676 11.329 9.49268 8.50439C9.49268 8.50439 11.1722 7.95323 14.9941 10.6064C16.5894 10.1519 18.3004 9.92417 20.0001 9.91645C21.6998 9.92417 23.412 10.1519 25.0104 10.6064C28.8278 7.95323 30.505 8.50439 30.505 8.50439C31.5936 11.329 30.9087 13.4146 30.701 13.9312C31.9833 15.3672 32.7593 17.1965 32.7593 19.4353C32.7593 27.3114 28.0806 29.0457 23.6271 29.5533C24.3444 30.1897 24.9836 31.4377 24.9836 33.3508C24.9836 36.0945 24.9604 38.3028 24.9604 38.9783C24.9604 39.5239 25.3204 40.1634 26.3343 39.962C34.2766 37.2474 40 29.5636 40 20.5063C40 9.18083 31.0455 0 20.0001 0Z" fill="#161614"/>
</svg>
