<svg width="41" height="41" viewBox="0 0 41 41" fill="none" xmlns="http://www.w3.org/2000/svg">
<path d="M33.3999 0.399902H7.3999C3.53391 0.399902 0.399902 3.53391 0.399902 7.3999V33.3999C0.399902 37.2659 3.53391 40.3999 7.3999 40.3999H33.3999C37.2659 40.3999 40.3999 37.2659 40.3999 33.3999V7.3999C40.3999 3.53391 37.2659 0.399902 33.3999 0.399902Z" fill="#F7DF1E"/>
<path d="M30.3378 33.4983C31.1435 34.8139 32.1917 35.7809 34.0457 35.7809C35.6032 35.7809 36.5981 35.0024 36.5981 33.9269C36.5981 32.638 35.5759 32.1815 33.8616 31.4316L32.9219 31.0285C30.2095 29.8729 28.4076 28.4253 28.4076 25.365C28.4076 22.5459 30.5556 20.3999 33.9124 20.3999C36.3022 20.3999 38.0203 21.2316 39.2584 23.4094L36.3314 25.2888C35.687 24.1332 34.9917 23.678 33.9124 23.678C32.8114 23.678 32.1137 24.3764 32.1137 25.2888C32.1137 26.4164 32.8121 26.8729 34.4248 27.5713L35.3644 27.9739C38.5581 29.3434 40.3613 30.7396 40.3613 33.8786C40.3613 37.2628 37.7029 39.1167 34.1327 39.1167C30.6419 39.1167 28.3867 37.4532 27.2832 35.2729L30.3378 33.4983ZM17.0597 33.824C17.6502 34.8716 18.1873 35.7574 19.4787 35.7574C20.7137 35.7574 21.4927 35.2742 21.4927 33.3955V20.6145H25.2514V33.4462C25.2514 37.3383 22.9695 39.1097 19.6387 39.1097C16.6292 39.1097 14.8863 37.5523 14 35.6764L17.0597 33.824Z" fill="black"/>
</svg>
