<svg width="41" height="41" viewBox="0 0 41 41" fill="none" xmlns="http://www.w3.org/2000/svg">
<path d="M36.8209 20.6944C36.8209 18.6382 34.9799 16.9713 32.709 16.9713C32.5628 16.9713 32.4188 16.9783 32.2767 16.9919L37.9244 1.90942H13.9238L19.5636 16.9788C19.4804 16.974 19.397 16.9716 19.3136 16.9714C17.0428 16.9714 15.2018 18.6381 15.2018 20.6945C15.2018 22.3566 16.4048 23.7638 18.065 24.2425C17.1882 25.6178 16.0847 26.8567 14.8319 27.927C13.1283 29.3821 11.1786 30.4856 9.06997 31.1654C6.55934 29.9976 5.37383 27.4005 6.44351 25.1234C6.56435 24.8661 6.68769 24.6055 6.80555 24.346C8.62435 23.9616 9.97984 22.4853 9.97984 20.7212C9.97984 18.6649 8.13881 16.998 5.86782 16.998C3.59682 16.998 1.75596 18.6649 1.75596 20.7212C1.75596 21.9821 2.44873 23.096 3.50792 23.7694C2.49021 25.8676 0.994157 28.0635 0.528032 30.6084C-0.0305995 33.6584 0.526153 36.896 3.43952 38.7244C10.2245 42.9824 17.5895 36.0848 25.3549 34.3507C28.1692 33.7225 31.2585 33.8237 33.738 32.5235C35.6 31.547 36.8276 29.9286 37.1759 28.1118C37.5202 26.317 37.0184 24.5299 35.8645 23.0809C36.4836 22.4121 36.8222 21.567 36.8209 20.6944Z" fill="#99425B"/>
<path d="M37.0702 27.156C36.7678 28.7334 35.6919 30.1112 34.1185 30.9364C32.6517 31.7056 30.8941 31.9352 29.0331 32.1781C28.0362 32.3082 27.0053 32.443 25.9982 32.6678C23.3355 33.2623 20.7563 34.4223 18.2622 35.5441C13.2707 37.789 8.96008 39.7276 4.89548 37.1768C1.9181 35.3084 2.05553 31.8514 2.40238 29.9571C2.72388 28.202 3.59306 26.5856 4.43343 25.0225C4.5766 24.7568 4.71862 24.4907 4.85948 24.224C5.28311 24.3773 5.72761 24.4783 6.18101 24.5242C5.32545 27.0808 6.67093 29.8606 9.49476 31.1741L9.88137 31.354L10.2905 31.222C12.523 30.502 14.5802 29.347 16.4048 27.7881C17.5842 26.7806 18.5983 25.6659 19.4318 24.4748C19.6852 24.5095 19.9411 24.5268 20.1973 24.5269C22.7892 24.5269 24.9355 22.7724 25.2676 20.5065C26.3285 20.4714 27.4553 20.4711 28.5223 20.5062C28.8542 22.7724 31.0007 24.527 33.5926 24.527C34.6764 24.527 35.6816 24.2195 36.5097 23.6971C37.0846 24.7627 37.2992 25.9617 37.0702 27.156ZM6.75169 17.1072C8.46531 17.1072 9.8593 18.3696 9.8593 19.9212C9.8593 20.4784 9.67868 20.9982 9.3686 21.4358C8.85208 22.1653 7.97398 22.6653 6.96519 22.7276C6.8946 22.7319 6.82338 22.735 6.75169 22.735C6.36978 22.735 6.00398 22.6719 5.66573 22.5574C4.98452 22.3255 4.41406 21.8855 4.05276 21.3135C3.78448 20.8897 3.64352 20.4097 3.64393 19.9212C3.64393 18.3696 5.03808 17.1072 6.75169 17.1072ZM17.0899 19.8944C17.0899 18.4846 18.2408 17.3141 19.7362 17.1117C19.8868 17.0912 20.0408 17.0806 20.1975 17.0806C21.1938 17.0806 22.0808 17.5079 22.6496 18.17C22.7921 18.3351 22.9138 18.5141 23.0124 18.7036C23.2056 19.0762 23.3055 19.4828 23.3051 19.8944C23.3051 20.1193 23.2751 20.338 23.2198 20.5477C22.9169 21.6957 21.8358 22.5733 20.511 22.6941C20.408 22.7034 20.3035 22.7082 20.1975 22.7082C19.5998 22.7087 19.0147 22.5521 18.5133 22.2574C17.6578 21.7555 17.0899 20.8841 17.0899 19.8944ZM30.0602 16.5482C29.3839 17.1327 28.8972 17.8736 28.6529 18.6907C27.4815 18.6516 26.309 18.6516 25.1377 18.6907C24.8747 17.8075 24.3297 17.0283 23.5964 16.4364L26.8122 10.5488L30.0602 16.5482ZM16.2082 2.01887H37.4072L32.4002 15.39C32.1848 15.4368 31.973 15.4962 31.7661 15.5679L26.82 6.4318L21.8598 15.5133C21.6435 15.4461 21.4226 15.3922 21.1983 15.3519L16.2082 2.01887ZM36.7002 19.8945C36.7002 20.1766 36.6537 20.449 36.5681 20.7062C36.365 21.3118 35.9431 21.8381 35.3702 22.2007C34.8495 22.5316 34.2287 22.7089 33.5926 22.7084C32.1577 22.7084 30.9474 21.823 30.5914 20.624C30.5207 20.3861 30.485 20.1409 30.485 19.8945C30.485 19.5099 30.5708 19.1431 30.7257 18.8089C30.8057 18.6379 30.9041 18.4745 31.0197 18.3211C31.5789 17.5736 32.5226 17.0807 33.5926 17.0807C33.6907 17.0807 33.7875 17.0852 33.8834 17.0935C35.4612 17.2265 36.7004 18.4316 36.7004 19.8945H36.7002ZM38.7089 19.8945C38.7089 17.6329 36.9092 15.7458 34.5388 15.3427L40.209 0.199951H13.4067L19.0857 15.3733C16.7977 15.8344 15.0814 17.6857 15.0814 19.8944C15.0814 21.5529 16.0493 23.0095 17.5 23.8281C16.8022 24.7695 15.9748 25.6553 15.0266 26.4654C13.5227 27.7499 11.8475 28.7241 10.0413 29.3651C8.22207 28.3304 7.45307 26.3789 8.25165 24.6791L8.31426 24.5458L8.43166 24.2958C10.4298 23.6647 11.8678 21.9428 11.8678 19.9212C11.8678 17.3667 9.57271 15.2886 6.75169 15.2886C3.93068 15.2886 1.63526 17.3667 1.63526 19.9212C1.63526 21.2105 2.22066 22.378 3.16262 23.2187C2.98693 23.5558 2.8086 23.8917 2.62762 24.2264C1.76627 25.828 0.790196 27.6434 0.420957 29.6595C-0.312197 33.6632 0.870492 36.8639 3.7513 38.6716C5.49935 39.7685 7.27464 40.2 9.06104 40.2C12.4247 40.2 15.8275 38.6697 19.1557 37.1728C21.5525 36.095 24.0311 34.9803 26.4792 34.4335C27.3902 34.2302 28.3275 34.1077 29.3198 33.9782C31.2878 33.7211 33.3226 33.4553 35.1251 32.5102C37.2145 31.4143 38.6447 29.5761 39.0492 27.4673C39.3963 25.6567 38.9786 23.8433 37.9596 22.3053C38.4506 21.5798 38.7099 20.7453 38.7089 19.8944V19.8945Z" fill="white"/>
</svg>
