<svg width="40" height="40" viewBox="0 0 40 40" fill="none" xmlns="http://www.w3.org/2000/svg">
<path d="M19.9661 29.7749C28.8156 41.8386 37.4761 26.4077 37.4633 17.128C37.4484 6.15678 26.3281 0.0249023 19.9589 0.0249023C9.73578 0.0247461 0 8.47365 0 20.0337C0 32.8827 11.1602 39.9999 19.9589 39.9999C17.9678 39.7132 11.3323 38.2915 11.2433 23.0082C11.1831 12.6716 14.6152 8.54178 19.9445 10.3585C20.0639 10.4027 25.823 12.6746 25.823 20.096C25.823 27.486 19.9661 29.7747 19.9661 29.7747V29.7749Z" fill="url(#paint0_linear_293_735)"/>
<path d="M19.9556 10.3501C14.1081 8.33462 6.94482 13.1541 6.94482 22.8073C6.94482 38.5693 18.625 39.9999 20.0409 39.9999C30.2641 39.9999 39.9998 31.5509 39.9998 19.991C39.9998 7.14196 28.8397 0.0247823 20.0409 0.0247823C22.478 -0.312717 33.1761 2.66228 33.1761 17.2838C33.1761 26.8191 25.188 32.0101 19.9923 29.7923C19.873 29.748 14.1137 27.4762 14.1137 20.0548C14.1137 12.6646 19.9556 10.3501 19.9556 10.3501Z" fill="url(#paint1_linear_293_735)"/>
<defs>
<linearGradient id="paint0_linear_293_735" x1="5.91583" y1="5.91602" x2="35.7955" y2="32.1585" gradientUnits="userSpaceOnUse">
<stop/>
<stop offset="1" stop-color="white"/>
</linearGradient>
<linearGradient id="paint1_linear_293_735" x1="34.0949" y1="34.0947" x2="1.75446" y2="12.0097" gradientUnits="userSpaceOnUse">
<stop/>
<stop offset="1" stop-color="white"/>
</linearGradient>
</defs>
</svg>
