<svg width="40" height="40" viewBox="0 0 40 40" fill="none" xmlns="http://www.w3.org/2000/svg">
<path d="M18.1953 0.426744C19.2882 -0.140965 20.7118 -0.143529 21.8038 0.426744C27.2977 3.24378 32.7933 6.05639 38.2862 8.87513C39.3193 9.40324 40.0104 10.4466 39.9999 11.5269V28.4753C40.0076 29.6003 39.2482 30.6686 38.1582 31.1847C32.6824 33.9862 27.2095 36.7912 21.7346 39.5927C20.619 40.1715 19.1669 40.1269 18.0861 39.5006C16.4445 38.637 14.8 37.7777 13.1582 36.915C12.8227 36.7335 12.4446 36.589 12.2077 36.2938C12.4171 36.0377 12.7915 36.0058 13.0958 35.8939C13.781 35.6962 14.4104 35.3788 15.0399 35.0708C15.1991 34.9719 15.3935 35.0098 15.5461 35.0983C16.9499 35.8287 18.3413 36.5803 19.7498 37.3037C20.0502 37.4612 20.3545 37.2522 20.6113 37.1222C25.9848 34.3663 31.3648 31.6208 36.7373 28.864C36.9364 28.7771 37.0464 28.5854 37.0303 28.3875C37.034 22.7966 37.0312 17.2047 37.0322 11.6138C37.0549 11.3893 36.9117 11.1829 36.688 11.091C31.2312 8.30229 25.7772 5.50934 20.3214 2.71994C20.2268 2.66097 20.1149 2.62933 20.0002 2.62918C19.8854 2.62903 19.7734 2.66037 19.6787 2.71909C14.2228 5.50934 8.76974 8.30486 3.31388 11.0934C3.09095 11.1854 2.94134 11.3884 2.96787 11.6138C2.96881 17.2047 2.96787 22.7966 2.96787 28.3884C2.95841 28.4849 2.98178 28.5818 3.03483 28.6659C3.08788 28.75 3.16806 28.8174 3.26458 28.8589C4.7205 29.6081 6.17831 30.352 7.63518 31.0987C8.45592 31.4996 9.46364 31.7378 10.3679 31.4306C11.1659 31.1709 11.7252 30.432 11.71 29.6631C11.7175 24.1048 11.7062 18.5457 11.7157 12.9883C11.6957 12.7415 11.9537 12.5377 12.218 12.5609C12.9176 12.5566 13.6181 12.5523 14.3176 12.5626C14.6096 12.5566 14.8106 12.8223 14.7744 13.0709C14.7716 18.6644 14.782 24.258 14.7697 29.8514C14.7716 31.3421 14.0967 32.9642 12.5772 33.6936C10.7053 34.5736 8.39155 34.387 6.54221 33.5432C4.94123 32.8181 3.41341 31.9623 1.84084 31.1854C0.748035 30.6722 -0.00755738 29.5996 0.000135121 28.4754V11.5269C-0.0113251 10.4243 0.707217 9.36192 1.77255 8.84151C7.24741 6.03773 12.7213 3.23181 18.1953 0.426744Z" fill="#8CC84B"/>
<path d="M22.9715 12.1671C25.3593 12.0276 27.9156 12.0844 30.0643 13.1519C31.7279 13.9699 32.6502 15.6867 32.6796 17.3639C32.6331 17.5901 32.3725 17.7149 32.1345 17.6994C31.4417 17.6986 30.7487 17.708 30.056 17.6951C29.7621 17.7054 29.5913 17.4595 29.5544 17.2237C29.3553 16.4212 28.873 15.6265 28.0407 15.2394C26.7629 14.6589 25.2814 14.6881 23.8881 14.7002C22.871 14.7492 21.7773 14.8291 20.9155 15.3719C20.254 15.783 20.053 16.613 20.2891 17.2814C20.5118 17.7614 21.1223 17.9162 21.6218 18.059C24.4995 18.7419 27.5488 18.674 30.3715 19.5728C31.5401 19.9392 32.6833 20.6515 33.0833 21.7618C33.6066 23.25 33.3772 25.0288 32.2105 26.2234C31.2643 27.2066 29.8862 27.7417 28.5118 28.0323C26.6833 28.4022 24.7858 28.4117 22.9289 28.2474C21.1829 28.0668 19.3659 27.6505 18.018 26.5709C16.8654 25.6627 16.3024 24.2476 16.3583 22.8819C16.3716 22.6512 16.6247 22.4904 16.8682 22.5093C17.5658 22.5042 18.2635 22.5025 18.9612 22.5102C19.2398 22.4921 19.4464 22.7106 19.4607 22.949C19.5894 23.7136 19.9061 24.516 20.6408 24.9694C22.0587 25.7995 23.8379 25.7426 25.4615 25.7659C26.8066 25.7117 28.3165 25.6953 29.4142 24.8886C29.9933 24.4284 30.1649 23.6586 30.0084 22.9963C29.8388 22.4371 29.1942 22.1765 28.6407 22.0062C25.8 21.1907 22.7165 21.4866 19.9033 20.5644C18.7612 20.1982 17.6567 19.5057 17.218 18.4409C16.6057 16.934 16.8862 15.07 18.1753 13.9156C19.4321 12.7674 21.2465 12.3252 22.9715 12.1669V12.1671Z" fill="#8CC84B"/>
</svg>
