<svg width="56" height="50" viewBox="0 0 56 50" fill="none" xmlns="http://www.w3.org/2000/svg">
<path d="M27.9999 29.4083C30.5731 29.4083 32.659 27.4347 32.659 25.0002C32.659 22.5656 30.5731 20.592 27.9999 20.592C25.4268 20.592 23.3408 22.5656 23.3408 25.0002C23.3408 27.4347 25.4268 29.4083 27.9999 29.4083Z" fill="#61DAFB"/>
<path d="M28 34.0313C41.8071 34.0313 53 29.9878 53 25C53 20.0122 41.8071 15.9688 28 15.9688C14.1929 15.9688 3 20.0122 3 25C3 29.9878 14.1929 34.0313 28 34.0313Z" stroke="#61DAFB" stroke-width="5"/>
<path d="M19.7334 29.5156C26.637 40.8288 35.9345 47.9783 40.5 45.4844C45.0655 42.9904 43.1702 31.7976 36.2666 20.4844C29.363 9.17116 20.0655 2.02172 15.5 4.51563C10.9345 7.00955 12.8298 18.2024 19.7334 29.5156Z" stroke="#61DAFB" stroke-width="5"/>
<path d="M19.7334 20.4844C12.8298 31.7976 10.9345 42.9904 15.5 45.4843C20.0655 47.9783 29.363 40.8288 36.2666 29.5156C43.1702 18.2024 45.0655 7.00953 40.5 4.51562C35.9345 2.0217 26.6369 9.17115 19.7334 20.4844Z" stroke="#61DAFB" stroke-width="5"/>
</svg>
