<svg width="34" height="25" viewBox="0 0 34 25" fill="none" xmlns="http://www.w3.org/2000/svg">
<path d="M0.5 10C0.5 4.75329 4.7533 0.5 10 0.5H24C29.2467 0.5 33.5 4.75329 33.5 10V15C33.5 20.2467 29.2467 24.5 24 24.5H10C4.75329 24.5 0.5 20.2467 0.5 15V10Z" fill="white" stroke="#010C15"/>
<path d="M23.5378 6.32194L15.8828 13.9588C16.1098 14.283 16.3028 14.6332 16.4578 15.0043L18.3678 19.5924L23.5378 6.32095V6.32194ZM14.5358 12.615L22.1918 4.97714L8.88877 10.1349L13.4878 12.0414C13.8569 12.1941 14.2083 12.3864 14.5358 12.615ZM26.1538 4.77163L20.1268 20.2409C19.7468 21.2186 18.6498 21.7204 17.6778 21.3622C17.441 21.2749 17.2249 21.1397 17.043 20.9651C16.8611 20.7905 16.7173 20.5803 16.6208 20.3476L14.7108 15.7595C14.3391 14.8654 13.627 14.155 12.7308 13.7842L8.13077 11.8787C7.17677 11.4827 6.74077 10.3823 7.15877 9.41859C7.26126 9.18311 7.40946 8.9702 7.59482 8.79213C7.78017 8.61406 7.99903 8.47435 8.23877 8.38105L23.7448 2.36634C24.0817 2.23088 24.4511 2.19727 24.807 2.26968C25.163 2.34209 25.4897 2.51732 25.7466 2.77358C26.0034 3.02983 26.1791 3.35578 26.2517 3.71087C26.3242 4.06596 26.2905 4.4345 26.1548 4.77063L26.1538 4.77163Z" fill="#010C15"/>
</svg>
