<svg width="29" height="34" viewBox="0 0 29 34" fill="none" xmlns="http://www.w3.org/2000/svg">
<path d="M26.728 25.5603C25.161 25.5148 23.9466 25.6973 22.928 26.199C22.6342 26.3357 22.164 26.3359 22.1248 26.7693C22.2815 26.9518 22.3011 27.2483 22.4383 27.4991C22.6736 27.9551 23.0846 28.571 23.4568 28.8905C23.8681 29.2553 24.2796 29.6201 24.7104 29.9395C25.4744 30.4869 26.3363 30.8061 27.0806 31.3536C27.5117 31.6727 27.9423 32.0835 28.3733 32.4255C28.5888 32.6077 28.7258 32.9045 29.0002 33.0185V32.9502C28.863 32.7447 28.8238 32.4483 28.6868 32.2202C28.4911 31.9921 28.295 31.7868 28.0991 31.5587C27.5311 30.6694 26.8259 29.8939 26.0621 29.2553C25.4353 28.7535 24.064 28.0693 23.8094 27.2253C23.8094 27.2253 23.7897 27.2027 23.7703 27.1799C24.2011 27.1342 24.7104 26.9517 25.1219 26.8149C25.7878 26.6095 26.395 26.6552 27.0806 26.4499C27.3939 26.3587 27.7074 26.2446 28.0207 26.1306V25.9254C27.6683 25.5148 27.4136 24.9675 27.0414 24.5798C26.0425 23.576 24.9454 22.5954 23.8094 21.7744C23.2022 21.3182 22.4186 21.0216 21.7722 20.634C21.5374 20.497 21.1454 20.4287 21.0084 20.2006C20.6557 19.6989 20.4598 19.0376 20.2052 18.4445C19.6374 17.1899 19.0887 15.7988 18.599 14.4761C18.2466 13.5865 18.0311 12.6969 17.6001 11.876C15.5826 7.99864 13.3888 5.64946 10.0197 3.34577C9.29492 2.86689 8.43308 2.6616 7.51247 2.41082C7.02295 2.38788 6.53309 2.34239 6.04345 2.31945C5.73002 2.15978 5.41658 1.72652 5.14232 1.52123C4.02603 0.700062 1.14644 -1.07873 0.323773 1.27045C-0.205154 2.75284 1.10737 4.21243 1.55771 4.96529C1.89096 5.48979 2.32171 6.08272 2.55679 6.67579C2.69392 7.0633 2.73299 7.47414 2.87012 7.88459C3.18367 8.88784 3.47729 10.0057 3.88879 10.9409C4.10428 11.4198 4.33925 11.9215 4.6135 12.3549C4.77022 12.6056 5.04437 12.7198 5.10325 13.1303C4.82911 13.5865 4.8094 14.2708 4.65257 14.8409C3.94745 17.4182 4.22182 20.6112 5.22068 22.5042C5.534 23.0742 6.27842 24.329 7.27739 23.8498C8.15893 23.4394 7.96304 22.1393 8.21748 20.999C8.27647 20.725 8.23729 20.5428 8.35472 20.3603V20.406C8.62898 21.0445 8.90312 21.6605 9.15779 22.299C9.76508 23.4164 10.8227 24.5798 11.7041 25.3553C12.1744 25.7656 12.5465 26.4727 13.1342 26.7236V26.6551H13.0949C12.9774 26.4498 12.8011 26.3587 12.6445 26.1989C12.2919 25.7886 11.9 25.2867 11.6259 24.8305C10.8033 23.5532 10.0784 22.1392 9.43205 20.6795C9.11873 19.9726 8.84435 19.1971 8.5898 18.4901C8.47215 18.2161 8.47215 17.8058 8.27636 17.6691C7.98251 18.1708 7.55165 18.6042 7.33616 19.2199C6.96418 20.2006 6.92488 21.4094 6.78776 22.6637C6.7094 22.6868 6.74846 22.6637 6.70928 22.7096C6.08263 22.5269 5.86714 21.7744 5.63195 21.1357C5.04426 19.5164 4.94631 16.9163 5.45576 15.0462C5.59289 14.5672 6.18058 13.062 5.9455 12.6058C5.82796 12.1724 5.43605 11.9215 5.22068 11.5794C4.96612 11.146 4.69175 10.5989 4.51556 10.1197C4.0454 8.84249 3.81032 7.42839 3.3011 6.15115C3.06602 5.55809 2.65486 4.94248 2.32171 4.39504C1.94962 3.7793 1.53823 3.34577 1.24438 2.61598C1.14655 2.3652 1.00931 1.95462 1.16602 1.6809C1.2052 1.49842 1.28345 1.43012 1.44028 1.3845C1.69495 1.13345 2.41978 1.4528 2.67422 1.58966C3.39905 1.93155 4.00622 2.25115 4.6135 2.73003C4.88765 2.95813 5.1815 3.39152 5.534 3.50557H5.94539C6.57227 3.66511 7.27728 3.55119 7.86497 3.75635C8.90324 4.144 9.84332 4.71425 10.6857 5.33012C13.2517 7.2231 15.367 9.91443 16.7971 13.1303C17.0321 13.6546 17.13 14.1339 17.3455 14.6811C17.757 15.7988 18.2662 16.9392 18.6773 18.0339C19.0887 19.1057 19.4804 20.2006 20.0681 21.0902C20.362 21.569 21.5371 21.82 22.0661 22.0709C22.4579 22.2761 23.0651 22.4587 23.4176 22.7095C24.0836 23.1882 24.7495 23.7359 25.3764 24.2603C25.6898 24.534 26.6691 25.1043 26.728 25.5603Z" fill="#00546B"/>
<path d="M9.29491 6.95386C8.83253 6.95386 8.50618 7.00961 8.17969 7.09261V7.14804H8.2341C8.45192 7.59152 8.83253 7.89642 9.10445 8.2843C9.32227 8.72762 9.51257 9.17127 9.73039 9.61475C9.75745 9.58687 9.78465 9.55931 9.78465 9.55931C10.1657 9.28198 10.356 8.83865 10.356 8.17343C10.1928 7.97957 10.1656 7.78554 10.0295 7.59152C9.86643 7.31419 9.51257 7.17576 9.29491 6.95386Z" fill="#00546B"/>
</svg>
