<svg width="63" height="40" viewBox="0 0 63 40" fill="none" xmlns="http://www.w3.org/2000/svg">
<path d="M31.7121 0C23.4589 0 18.301 4.44454 16.2375 13.3328C19.3327 8.88824 22.9434 7.22216 27.0696 8.33288C29.4241 8.96662 31.1068 10.807 32.9698 12.8433C36.0039 16.1604 39.5155 19.9996 47.1866 19.9996C55.439 19.9996 60.5977 15.555 62.6605 6.66597C59.566 11.1105 55.9553 12.7774 51.8283 11.6667C49.4746 11.033 47.7919 9.1926 45.9289 7.15629C42.8948 3.83915 39.3824 0 31.7121 0ZM16.2375 19.9996C7.98509 19.9996 2.82638 24.4441 0.763672 33.3332C3.85812 28.8887 7.46884 27.2217 11.5958 28.3333C13.9495 28.9679 15.6322 30.8074 17.4952 32.8429C20.5293 36.16 24.0417 40 31.7121 40C39.9652 40 45.1232 35.5555 47.1866 26.6664C44.0914 31.1109 40.4807 32.7778 36.3545 31.6663C34 31.0334 32.3173 29.1922 30.4543 27.1567C27.4202 23.8396 23.9086 19.9996 16.2375 19.9996Z" fill="#06B6D4"/>
</svg>
