<svg width="41" height="40" viewBox="0 0 41 40" fill="none" xmlns="http://www.w3.org/2000/svg">
<path d="M0.200195 0H40.2002V40H0.200195V0Z" fill="#017ACB"/>
<path d="M19.4065 14.8126H21.3252V18.1251H16.1377V32.8626L16.0002 32.9001C15.8127 32.9501 13.344 32.9501 12.8127 32.8938L12.3877 32.8563V18.1251H7.2002V14.8126L8.84395 14.7938C9.74395 14.7813 12.0565 14.7813 13.9815 14.7938C15.9065 14.8063 18.344 14.8126 19.4065 14.8126ZM34.0502 31.3001C33.2877 32.1063 32.469 32.5563 31.1065 32.9251C30.5127 33.0876 30.4127 33.0938 29.0752 33.0876C27.7377 33.0813 27.6315 33.0813 26.9815 32.9126C25.3002 32.4813 23.944 31.6376 23.019 30.4438C22.7565 30.1063 22.3252 29.4063 22.3252 29.3188C22.3252 29.2938 22.3877 29.2376 22.469 29.2001C22.5502 29.1626 22.719 29.0563 22.8565 28.9751C22.994 28.8938 23.244 28.7438 23.4127 28.6563C23.5815 28.5688 24.069 28.2813 24.494 28.0251C24.919 27.7688 25.3065 27.5626 25.3502 27.5626C25.394 27.5626 25.4752 27.6501 25.5377 27.7563C25.9127 28.3876 26.7877 29.1938 27.4065 29.4688C27.7877 29.6313 28.6315 29.8126 29.0377 29.8126C29.4127 29.8126 30.1002 29.6501 30.469 29.4813C30.8627 29.3001 31.0627 29.1188 31.3002 28.7563C31.4627 28.5001 31.4815 28.4313 31.4752 27.9438C31.4752 27.4938 31.4502 27.3688 31.3252 27.1626C30.9752 26.5876 30.5002 26.2876 28.5752 25.4376C26.5877 24.5563 25.694 24.0313 24.969 23.3251C24.4315 22.8001 24.3252 22.6563 23.9877 22.0001C23.5502 21.1563 23.494 20.8813 23.4877 19.6251C23.4815 18.7438 23.5002 18.4563 23.594 18.1563C23.7252 17.7063 24.1502 16.8376 24.344 16.6188C24.744 16.1501 24.8877 16.0063 25.169 15.7751C26.019 15.0751 27.344 14.6126 28.6127 14.5688C28.7565 14.5688 29.2315 14.5938 29.6752 14.6251C30.9502 14.7313 31.819 15.0438 32.6565 15.7126C33.2877 16.2126 34.244 17.3876 34.1502 17.5438C34.0877 17.6376 31.594 19.3001 31.4315 19.3501C31.3315 19.3813 31.2627 19.3438 31.1252 19.1813C30.2752 18.1626 29.9315 17.9438 29.1065 17.8938C28.519 17.8563 28.2065 17.9251 27.8127 18.1876C27.4002 18.4626 27.2002 18.8813 27.2002 19.4626C27.2065 20.3126 27.5315 20.7126 28.7315 21.3063C29.5065 21.6876 30.169 22.0001 30.219 22.0001C30.294 22.0001 31.9002 22.8001 32.319 23.0501C34.269 24.1938 35.0627 25.3688 35.269 27.3938C35.419 28.9188 34.9877 30.3126 34.0502 31.3001Z" fill="white"/>
</svg>
