<svg width="41" height="41" viewBox="0 0 41 41" fill="none" xmlns="http://www.w3.org/2000/svg">
<path d="M30.6849 12.2742L21.1223 27.4303C21.0209 27.591 20.8743 27.7114 20.7047 27.7732C20.535 27.835 20.3517 27.8344 20.1824 27.7723C20.0131 27.71 19.8672 27.589 19.7667 27.428C19.6662 27.2667 19.6167 27.0741 19.6256 26.8795L20.0083 18.5118L13.8299 17.0754C13.6978 17.0447 13.5748 16.979 13.4717 16.884C13.3686 16.789 13.2885 16.6677 13.2387 16.5308C13.1888 16.394 13.1707 16.2457 13.1859 16.0993C13.2011 15.9529 13.2491 15.8127 13.3257 15.6912L22.8884 0.535103C22.9898 0.37432 23.1365 0.253972 23.3061 0.192275C23.4757 0.130578 23.6591 0.130897 23.8284 0.193232C23.9976 0.255538 24.1436 0.376437 24.2441 0.537597C24.3446 0.698729 24.3941 0.891303 24.3851 1.08611L24.0024 9.45394L30.1808 10.8902C30.3128 10.9208 30.4359 10.9866 30.5391 11.0816C30.6423 11.1766 30.7222 11.2979 30.7719 11.4347C30.8219 11.5716 30.8399 11.7198 30.8249 11.8663C30.8098 12.0127 30.7616 12.1528 30.6849 12.2742Z" fill="#FCC72B"/>
<path d="M20.6704 40.1463C20.416 40.1466 20.1641 40.092 19.9292 39.9853C19.6942 39.8786 19.4808 39.7219 19.3012 39.5247L10.2656 29.6207C9.9041 29.2224 9.70149 28.6832 9.70215 28.1213C9.70284 27.5595 9.90675 27.0205 10.2692 26.6234C10.6317 26.2261 11.1231 26.0024 11.6357 26.0015C12.1483 26.001 12.6402 26.2229 13.0037 26.6191L20.6704 35.0223L37.3724 16.7147C37.7365 16.322 38.2273 16.103 38.738 16.1052C39.249 16.1075 39.7383 16.3309 40.0992 16.7269C40.4604 17.1228 40.6644 17.6591 40.6665 18.219C40.6684 18.7789 40.4686 19.317 40.1103 19.7161L22.0393 39.5247C21.8597 39.7222 21.6463 39.8786 21.4114 39.9853C21.1765 40.092 20.9246 40.1466 20.6704 40.1463Z" fill="#729B1B"/>
<path d="M20.6626 40.1463C20.9169 40.1466 21.1688 40.092 21.4038 39.9853C21.6387 39.8786 21.8522 39.7219 22.0318 39.5247L31.0674 29.6207C31.4288 29.2224 31.6315 28.6832 31.6307 28.1213C31.6302 27.5595 31.4262 27.0205 31.0637 26.6234C30.7011 26.2261 30.2098 26.0024 29.6972 26.0015C29.1846 26.001 28.6927 26.2229 28.3291 26.6191L20.6626 35.0223L3.9606 16.7147C3.59649 16.322 3.10558 16.103 2.59482 16.1052C2.08404 16.1075 1.59477 16.3309 1.2336 16.7269C0.872426 17.1228 0.6686 17.6591 0.66652 18.219C0.66444 18.7789 0.864276 19.317 1.2225 19.7161L19.2937 39.5247C19.4732 39.7222 19.6866 39.8786 19.9215 39.9853C20.1565 40.092 20.4083 40.1466 20.6626 40.1463Z" fill="#729B1B" fill-opacity="0.5"/>
</svg>
