<svg width="40" height="41" viewBox="0 0 40 41" fill="none" xmlns="http://www.w3.org/2000/svg">
<path d="M39.8677 6.32038L21.0776 39.8779C20.6897 40.5708 19.6929 40.5748 19.2992 39.8854L0.136669 6.3235C-0.292395 5.57226 0.350888 4.66216 1.20339 4.81446L20.0136 8.17227C20.1336 8.19369 20.2564 8.19348 20.3764 8.17165L38.7931 4.81915C39.6428 4.6645 40.2891 5.56758 39.8677 6.32038Z" fill="url(#paint0_linear_415_281)"/>
<path d="M29.0258 0.409751L15.1208 3.13102C15.0097 3.15276 14.909 3.21076 14.8345 3.2959C14.76 3.38104 14.7159 3.4885 14.7092 3.60137L13.8539 18.0295C13.8492 18.1086 13.8631 18.1878 13.8943 18.2606C13.9256 18.3335 13.9734 18.3981 14.0341 18.4492C14.0947 18.5004 14.1664 18.5368 14.2435 18.5554C14.3207 18.5741 14.4011 18.5745 14.4785 18.5567L18.3499 17.6643C18.7121 17.5809 19.0394 17.8995 18.9649 18.2633L17.8147 23.8886C17.7374 24.2672 18.0932 24.5908 18.4633 24.4785L20.8546 23.753C21.2252 23.6406 21.5814 23.9652 21.503 24.3441L19.6752 33.18C19.5608 33.7328 20.2969 34.0341 20.6038 33.5603L20.8089 33.2439L32.1396 10.6597C32.3294 10.2816 32.0021 9.8504 31.5865 9.93061L27.6013 10.6987C27.2269 10.7708 26.9083 10.4225 27.014 10.0567L29.6149 1.0516C29.7207 0.684874 29.4008 0.336405 29.026 0.409751H29.0258Z" fill="url(#paint1_linear_415_281)"/>
<defs>
<linearGradient id="paint0_linear_415_281" x1="-0.3312" y1="7.5219" x2="19.9006" y2="35.0331" gradientUnits="userSpaceOnUse">
<stop stop-color="#41D1FF"/>
<stop offset="1" stop-color="#BD34FE"/>
</linearGradient>
<linearGradient id="paint1_linear_415_281" x1="21.809" y1="1.14863" x2="25.9676" y2="29.7118" gradientUnits="userSpaceOnUse">
<stop stop-color="#FFEA83"/>
<stop offset="0.083" stop-color="#FFDD35"/>
<stop offset="1" stop-color="#FFA800"/>
</linearGradient>
</defs>
</svg>
