<svg width="21" height="21" viewBox="0 0 21 21" fill="none" xmlns="http://www.w3.org/2000/svg">
<path fill-rule="evenodd" clip-rule="evenodd" d="M10.5 0C10.9142 0 11.25 0.335786 11.25 0.75V3C11.25 3.41421 10.9142 3.75 10.5 3.75C10.0858 3.75 9.75 3.41421 9.75 3V0.75C9.75 0.335786 10.0858 0 10.5 0Z" fill="white"/>
<path fill-rule="evenodd" clip-rule="evenodd" d="M10.5 17.25C10.9142 17.25 11.25 17.5858 11.25 18V20.25C11.25 20.6642 10.9142 21 10.5 21C10.0858 21 9.75 20.6642 9.75 20.25V18C9.75 17.5858 10.0858 17.25 10.5 17.25Z" fill="white"/>
<path fill-rule="evenodd" clip-rule="evenodd" d="M17.9247 3.07529C18.2176 3.36819 18.2176 3.84306 17.9247 4.13595L16.3338 5.72689C16.0409 6.01979 15.566 6.01979 15.2731 5.72689C14.9802 5.434 14.9802 4.95913 15.2731 4.66623L16.864 3.0753C17.1569 2.7824 17.6318 2.7824 17.9247 3.07529Z" fill="white"/>
<path fill-rule="evenodd" clip-rule="evenodd" d="M5.72689 15.2731C6.01979 15.566 6.01979 16.0409 5.72689 16.3338L4.13595 17.9247C3.84306 18.2176 3.36819 18.2176 3.07529 17.9247C2.7824 17.6318 2.7824 17.1569 3.0753 16.864L4.66623 15.2731C4.95913 14.9802 5.434 14.9802 5.72689 15.2731Z" fill="white"/>
<path fill-rule="evenodd" clip-rule="evenodd" d="M17.25 10.5C17.25 10.0858 17.5858 9.75 18 9.75H20.25C20.6642 9.75 21 10.0858 21 10.5C21 10.9142 20.6642 11.25 20.25 11.25H18C17.5858 11.25 17.25 10.9142 17.25 10.5Z" fill="white"/>
<path fill-rule="evenodd" clip-rule="evenodd" d="M0 10.5C0 10.0858 0.335786 9.75 0.75 9.75H3C3.41421 9.75 3.75 10.0858 3.75 10.5C3.75 10.9142 3.41421 11.25 3 11.25H0.75C0.335786 11.25 0 10.9142 0 10.5Z" fill="white"/>
<path fill-rule="evenodd" clip-rule="evenodd" d="M15.2731 15.2731C15.566 14.9802 16.0409 14.9802 16.3338 15.2731L17.9247 16.864C18.2176 17.1569 18.2176 17.6318 17.9247 17.9247C17.6318 18.2176 17.1569 18.2176 16.864 17.9247L15.2731 16.3338C14.9802 16.0409 14.9802 15.566 15.2731 15.2731Z" fill="white"/>
<path fill-rule="evenodd" clip-rule="evenodd" d="M3.07529 3.07529C3.36819 2.7824 3.84306 2.7824 4.13596 3.07529L5.72689 4.66623C6.01979 4.95913 6.01979 5.434 5.72689 5.72689C5.434 6.01979 4.95913 6.01979 4.66623 5.72689L3.07529 4.13596C2.7824 3.84306 2.7824 3.36819 3.07529 3.07529Z" fill="white"/>
<path fill-rule="evenodd" clip-rule="evenodd" d="M10.5 7.5C8.84315 7.5 7.5 8.84315 7.5 10.5C7.5 12.1569 8.84315 13.5 10.5 13.5C12.1569 13.5 13.5 12.1569 13.5 10.5C13.5 8.84315 12.1569 7.5 10.5 7.5ZM6 10.5C6 8.01472 8.01472 6 10.5 6C12.9853 6 15 8.01472 15 10.5C15 12.9853 12.9853 15 10.5 15C8.01472 15 6 12.9853 6 10.5Z" fill="white"/>
</svg>
